<svg width="200" height="80" viewBox="0 0 200 80" xmlns="http://www.w3.org/2000/svg">

  <!-- Half size mark -->
  <g transform="translate(30, 40) scale(0.5)">
    <path d="M 14 16 C 8 8, -2 2, -16 0" fill="none" stroke="#4DC4E8" stroke-width="2.4" stroke-linecap="round"/>
    <path d="M 18 15 C 24 8, 32 3, 42 2" fill="none" stroke="#4DC4E8" stroke-width="1.8" stroke-linecap="round" opacity="0.75"/>
    <path d="M 12 18 C 11 24, 10 28, 9 32" fill="none" stroke="#4DC4E8" stroke-width="2" stroke-linecap="round" opacity="0.35"/>
    <circle cx="16" cy="16" r="3.2" fill="#4DC4E8"/>
  </g>

  <!-- Quarter size mark -->
  <g transform="translate(80, 40) scale(0.28)">
    <path d="M 14 16 C 8 8, -2 2, -16 0" fill="none" stroke="#4DC4E8" stroke-width="3.5" stroke-linecap="round"/>
    <path d="M 18 15 C 24 8, 32 3, 42 2" fill="none" stroke="#4DC4E8" stroke-width="2.5" stroke-linecap="round" opacity="0.75"/>
    <path d="M 12 18 C 11 24, 10 28, 9 32" fill="none" stroke="#4DC4E8" stroke-width="2.8" stroke-linecap="round" opacity="0.35"/>
    <circle cx="16" cy="16" r="4" fill="#4DC4E8"/>
  </g>

</svg>
